<?xml version="1.0" encoding="UTF-8"?>
<svg width="24px" height="21px" viewBox="0 0 24 21" version="1.1" xmlns="http://www.w3.org/2000/svg" xmlns:xlink="http://www.w3.org/1999/xlink">
    <title>4F1CFED8-F6DC-4BA3-935C-0BA5B90BFF87</title>
    <defs>
        <path d="M0.857142857,3.85714286 L23.1428571,3.85714286 C23.6162679,3.85714286 24,3.47341071 24,3 L24,0.857142857 C24,0.383732143 23.6162679,0 23.1428571,0 L0.857142857,0 C0.383732143,0 0,0.383732143 0,0.857142857 L0,3 C0,3.47341071 0.383732143,3.85714286 0.857142857,3.85714286 Z M0.857142857,12.4285714 L23.1428571,12.4285714 C23.6162679,12.4285714 24,12.0448393 24,11.5714286 L24,9.42857143 C24,8.95516071 23.6162679,8.57142857 23.1428571,8.57142857 L0.857142857,8.57142857 C0.383732143,8.57142857 0,8.95516071 0,9.42857143 L0,11.5714286 C0,12.0448393 0.383732143,12.4285714 0.857142857,12.4285714 Z M0.857142857,21 L23.1428571,21 C23.6162679,21 24,20.6162679 24,20.1428571 L24,18 C24,17.5265893 23.6162679,17.1428571 23.1428571,17.1428571 L0.857142857,17.1428571 C0.383732143,17.1428571 0,17.5265893 0,18 L0,20.1428571 C0,20.6162679 0.383732143,21 0.857142857,21 Z" id="path-1"></path>
    </defs>
    <g id="SITE-2.0" stroke="none" stroke-width="1" fill="none" fill-rule="evenodd">
        <g id="Home-(Mobile)" transform="translate(-375.000000, -17.500000)">
            <g id="Stacked-Group-3" transform="translate(15.000000, 12.000000)">
                <g id="Solid/bars" transform="translate(360.000000, 5.500000)">
                    <mask id="mask-2" fill="white">
                        <use xlink:href="#path-1"></use>
                    </mask>
                    <g id="Mask"></g>
                    <g id="🎨-color" mask="url(#mask-2)" fill="#4981C2">
                        <g transform="translate(0.000000, -1.500000)" id="IMG-Blue-1">
                            <rect x="0" y="0" width="24" height="24"></rect>
                        </g>
                    </g>
                </g>
            </g>
        </g>
    </g>
</svg>