<?xml version="1.0" encoding="UTF-8"?>
<svg width="414px" height="32px" viewBox="0 0 414 32" version="1.1" xmlns="http://www.w3.org/2000/svg" xmlns:xlink="http://www.w3.org/1999/xlink">
    <title>Mobile_StayConnected_blue</title>
    <g id="SITE-2.0" stroke="none" stroke-width="1" fill="none" fill-rule="evenodd">
        <g id="Mobile_StayConnected_blue" fill="#DBE6F3">
            <path d="M414,0 L414,13.7963639 C380.243703,25.9321213 340.089536,32 293.5375,32 C223.709446,32 162.047853,14.7605445 130.37283,13.7963639 C109.803761,13.1702461 86.0435605,13.0494517 59.0922283,13.433981 C25.3596912,8.10167041 5.66228183,9.25970465 0,16.9080837 L0,0 L414,0 Z" id="Rectangle" opacity="0.319700695" transform="translate(207.000000, 16.000000) scale(-1, -1) translate(-207.000000, -16.000000) "></path>
            <path d="M414,5.04058611 L414,29.5512244 C379.70864,17.7504924 339.286942,11.8501264 292.734906,11.8501264 C231.588743,11.8501264 207.31452,30.0970641 144.263084,31.8099013 C102.228793,32.9517928 54.1410987,28.9493187 0,19.802479 L0,5.04058611 L414,5.04058611 Z" id="Rectangle" opacity="0.447881789" transform="translate(207.000000, 18.520293) scale(1, -1) translate(-207.000000, -18.520293) "></path>
            <path d="M414,9.23777999 L414,31.9826197 C379.608617,18.1540752 339.136908,11.239803 292.584871,11.239803 C264.592277,11.239803 220.732029,15.9057953 161.004127,25.23778 C131.16721,29.5183063 103.377252,31.7665862 77.6342514,31.9826197 C51.8912511,32.1986532 26.0131674,30.4007518 0,26.5889155 L0,9.23777999 L414,9.23777999 Z" id="Rectangle" transform="translate(207.000000, 20.618890) scale(1, -1) translate(-207.000000, -20.618890) "></path>
        </g>
    </g>
</svg>