<?xml version="1.0" encoding="UTF-8"?>
<svg width="1440px" height="48px" viewBox="0 0 1440 48" version="1.1" xmlns="http://www.w3.org/2000/svg" xmlns:xlink="http://www.w3.org/1999/xlink">
    <title>Stay Connected_Wave_Blue</title>
    <g id="ASSETS" stroke="none" stroke-width="1" fill="none" fill-rule="evenodd">
        <g id="Stay-Connected_Wave_Blue" transform="translate(0.000000, 0.000000)" fill="#DBE6F3">
            <path d="M1440,0 L1440,20.6945459 C1322.58679,38.898182 1182.92013,48 1021,48 C778.119811,48 563.644704,22.1408168 453.470715,20.6945459 C381.926126,19.7553691 299.281949,19.5741776 205.538185,20.1509715 C88.2076217,12.1525056 19.6948933,13.889557 0,25.3621256 L0,0 L1440,0 Z" id="Rectangle" opacity="0.319700695" transform="translate(720.000000, 24.000000) scale(-1, -1) translate(-720.000000, -24.000000) "></path>
            <path d="M1440,7.56087917 L1440,44.3268366 C1320.72571,26.6257386 1180.12849,17.7751896 1018.20837,17.7751896 C805.526064,17.7751896 721.093984,45.1455961 501.784641,47.714852 C355.578412,49.4276892 188.316865,43.423978 0,29.7037184 L0,7.56087917 L1440,7.56087917 Z" id="Rectangle" opacity="0.447881789" transform="translate(720.000000, 27.780440) scale(1, -1) translate(-720.000000, -27.780440) "></path>
            <path d="M1440,13.85667 L1440,47.9739295 C1320.3778,27.2311129 1179.60664,16.8597045 1017.68651,16.8597045 C920.320965,16.8597045 767.76358,23.858693 560.014356,37.85667 C456.233775,44.2774594 359.573049,47.6498793 270.032179,47.9739295 C180.491308,48.2979797 90.4805821,45.6011276 0,39.8833733 L0,13.85667 L1440,13.85667 Z" id="Rectangle" transform="translate(720.000000, 30.928335) scale(1, -1) translate(-720.000000, -30.928335) "></path>
        </g>
    </g>
</svg>