<?xml version="1.0" encoding="UTF-8"?>
<svg width="41.5756413px" height="524.051427px" viewBox="0 0 41.5756413 524.051427" version="1.1" xmlns="http://www.w3.org/2000/svg" xmlns:xlink="http://www.w3.org/1999/xlink">
    <title>B5FFE15A-363C-4712-AA0A-1423D842415A</title>
    <g id="SITE-2.0" stroke="none" stroke-width="1" fill="none" fill-rule="evenodd">
        <g id="Camp-Modal" transform="translate(-402.421586, -66.983522)" fill="#FFFFFF">
            <g id="Group-6" transform="translate(20.000000, 67.000000)">
                <g id="Group-2" transform="translate(403.209406, 262.009236) rotate(-90.000000) translate(-403.209406, -262.009236) translate(141.183693, 241.221415)">
                    <path d="M524.051427,0 L524.051427,13.483235 C481.733392,32.2115059 431.111017,41.5756413 372.184299,41.5756413 C283.794223,41.5756413 205.124175,14.4255321 165.029149,13.483235 C138.992313,12.8713278 108.916064,12.7532751 74.8004022,13.1290768 C32.1009236,7.91779097 7.16745621,9.0495419 0,16.5243296 L0,0 L524.051427,0 Z" id="Rectangle" opacity="0.3" transform="translate(262.025713, 20.787821) scale(-1, -1) translate(-262.025713, -20.787821) "></path>
                    <path d="M524.051427,7.72644661 L524.051427,32.1759576 C480.644576,20.4046555 429.477793,14.5190045 370.551075,14.5190045 C282.160999,14.5190045 244.39608,41.5756413 202.776101,41.5756413 C175.029449,41.5756413 107.437415,35.2009357 0,22.4515246 L0,7.72644661 L524.051427,7.72644661 Z" id="Rectangle" opacity="0.5" transform="translate(262.025713, 24.651044) scale(1, -1) translate(-262.025713, -24.651044) "></path>
                    <path d="M524.051427,11.0377809 L524.051427,35.0561773 C480.517965,20.4533282 429.287875,13.1519036 370.361158,13.1519036 C281.971082,13.1519036 181.394963,41.5756413 97.5425174,41.5756413 C41.6408871,41.5756413 9.12671468,37.503915 0,29.3604623 L0,11.0377809 L524.051427,11.0377809 Z" id="Rectangle" transform="translate(262.025713, 26.306711) scale(1, -1) translate(-262.025713, -26.306711) "></path>
                </g>
            </g>
        </g>
    </g>
</svg>