<?xml version="1.0" encoding="UTF-8"?>
<svg width="281px" height="17.9578254px" viewBox="0 0 281 17.9578254" version="1.1" xmlns="http://www.w3.org/2000/svg" xmlns:xlink="http://www.w3.org/1999/xlink">
    <title>Card Wave</title>
    <g id="ASSETS" stroke="none" stroke-width="1" fill="none" fill-rule="evenodd">
        <g id="Artboard" transform="translate(-1017.000000, -499.000000)" fill="#FFFFFF">
            <g id="Card-Wave" transform="translate(1017.000000, 499.000000)">
                <path d="M281,0 L281,7.74227173 C258.088117,14.5526409 230.833719,17.9578254 199.236806,17.9578254 C151.841435,17.9578254 109.989001,8.28335257 88.4897714,7.74227173 C74.5286399,7.39090562 58.4015471,7.32311802 40.1084931,7.53890893 C17.2127373,4.54651197 3.8432396,5.19637999 0,9.488513 L0,0 L281,0 Z" id="Rectangle" opacity="0.319700695" transform="translate(140.500000, 8.978913) scale(-1, -1) translate(-140.500000, -8.978913) "></path>
                <path d="M281,2.82868642 L281,16.5836166 C257.724947,9.96125763 230.288963,6.65007816 198.69205,6.65007816 C157.189461,6.65007816 140.713479,16.889932 97.9176972,17.8511455 C69.3871762,18.4919545 36.7479438,16.2458379 0,11.1127956 L0,2.82868642 L281,2.82868642 Z" id="Rectangle" opacity="0.447881789" transform="translate(140.500000, 10.393256) scale(1, -1) translate(-140.500000, -10.393256) "></path>
                <path d="M281,5.18407627 L281,17.9480719 C257.657057,10.1877411 230.187128,6.30757565 198.590215,6.30757565 C179.590411,6.30757565 149.820532,8.92604676 109.280579,14.162989 C89.0289519,16.5651435 70.1666853,17.8268378 52.6937793,17.9480719 C35.2208734,18.069306 17.6562803,17.0603561 0,14.921222 L0,5.18407627 L281,5.18407627 Z" id="Rectangle" transform="translate(140.500000, 11.570951) scale(1, -1) translate(-140.500000, -11.570951) "></path>
            </g>
        </g>
    </g>
</svg>