<?xml version="1.0" encoding="UTF-8"?>
<svg width="20px" height="20px" viewBox="0 0 20 20" version="1.1" xmlns="http://www.w3.org/2000/svg" xmlns:xlink="http://www.w3.org/1999/xlink">
    <title>1B0DE8A5-C394-4619-BEC5-514AB4025655</title>
    <defs>
        <path d="M16.8627676,0.264445976 C17.2153622,-0.0881486587 17.7869669,-0.0881486587 18.1395616,0.264445976 L19.735554,1.86043844 C20.0881487,2.21303307 20.0881487,2.78463777 19.735554,3.13723241 L12.873,10 L19.735554,16.8627676 C20.0587658,17.1859793 20.0857001,17.6932204 19.816357,18.0471037 L19.735554,18.1395616 L18.1395616,19.735554 C17.7869669,20.0881487 17.2153622,20.0881487 16.8627676,19.735554 L10,12.873 L3.13723241,19.735554 C2.81402066,20.0587658 2.30677962,20.0857001 1.95289632,19.816357 L1.86043844,19.735554 L0.264445976,18.1395616 C-0.0881486587,17.7869669 -0.0881486587,17.2153622 0.264445976,16.8627676 L7.127,10 L0.264445976,3.13723241 C-0.0587657725,2.81402066 -0.0857000849,2.30677962 0.183643039,1.95289632 L0.264445976,1.86043844 L1.86043844,0.264445976 C2.21303307,-0.0881486587 2.78463777,-0.0881486587 3.13723241,0.264445976 L10,7.127 Z" id="path-1"></path>
    </defs>
    <g id="SITE-2.0" stroke="none" stroke-width="1" fill="none" fill-rule="evenodd">
        <g id="Nav-Mobile" transform="translate(-377.000000, -18.000000)">
            <g id="Stacked-Group-3" transform="translate(15.000000, 12.000000)">
                <g id="Group-5" transform="translate(360.000000, 4.000000)">
                    <g id="Solid/X" transform="translate(2.000000, 2.000000)">
                        <mask id="mask-2" fill="white">
                            <use xlink:href="#path-1"></use>
                        </mask>
                        <g id="Combined-Shape"></g>
                        <g id="🎨-color" mask="url(#mask-2)" fill="#4981C2">
                            <g transform="translate(-3.159904, -3.159904)" id="IMG-Blue-1">
                                <rect x="0" y="0" width="25.2792309" height="25.2792309"></rect>
                            </g>
                        </g>
                    </g>
                </g>
            </g>
        </g>
    </g>
</svg>