<svg width="25" height="23" viewBox="0 0 25 23" fill="none" xmlns="http://www.w3.org/2000/svg">
<path d="M3.18027 22.5302H21.8197C23.5754 22.5302 25 21.1059 25 19.3499V15.9721C25 15.4895 24.6105 15.1 24.1279 15.1C23.6453 15.1 23.2558 15.4895 23.2558 15.9721V19.3499C23.2558 20.1406 22.6105 20.786 21.8197 20.786H3.18027C2.38958 20.786 1.74418 20.1407 1.74418 19.3499V15.9721C1.74418 15.4895 1.35469 15.1 0.87209 15.1C0.38949 15.1 0 15.4895 0 15.9721V19.3499C0 21.1 1.42432 22.5302 3.18027 22.5302Z"  fill="#000"/>
<path d="M12.3548 0.948827C11.8722 0.948827 11.4827 1.33832 11.4827 1.82092V14.1406L9.44195 12.0999C9.09902 11.757 8.5466 11.757 8.20935 12.0999C7.86642 12.4428 7.86642 12.9952 8.20935 13.3325L11.7384 16.8616C11.8198 16.9429 11.9186 17.0069 12.0232 17.0535C12.0291 17.0535 12.0348 17.0593 12.0406 17.0593C12.1394 17.0942 12.2382 17.1174 12.3488 17.1174H12.3546H12.3605C12.4651 17.1174 12.5698 17.0941 12.6627 17.0593C12.6686 17.0593 12.6801 17.0535 12.686 17.0535C12.7907 17.0128 12.8836 16.9488 12.9593 16.8733C12.9593 16.8733 12.9652 16.8733 12.9652 16.8674L16.6454 13.193C16.9884 12.8501 16.9884 12.2977 16.6454 11.9604C16.3025 11.6175 15.7501 11.6175 15.4128 11.9604L13.2211 14.1522V1.82082C13.2269 1.34409 12.8374 0.94873 12.3548 0.94873L12.3548 0.948827Z" fill="#000" />
</svg>