<?xml version="1.0" encoding="UTF-8"?>
<svg width="10px" height="7.5px" viewBox="0 0 10 7.5" version="1.1" xmlns="http://www.w3.org/2000/svg" xmlns:xlink="http://www.w3.org/1999/xlink">
    <title>30EF48F1-73F4-4E62-A14C-676AC4B0A040</title>
    <defs>
        <path d="M9.81054688,2.4765625 C9.88671875,2.41601563 10,2.47265625 10,2.56835938 L10,6.5625 C10,7.08007813 9.58007812,7.5 9.0625,7.5 L0.9375,7.5 C0.419921875,7.5 0,7.08007813 0,6.5625 L0,2.5703125 C0,2.47265625 0.111328125,2.41796875 0.189453125,2.47851563 C0.626953125,2.81835938 1.20703125,3.25 3.19921875,4.69726563 C3.61132812,4.99804688 4.30664062,5.63085938 5,5.62695313 C5.69726562,5.6328125 6.40625,4.98632813 6.80273438,4.69726563 C8.79492188,3.25 9.37304688,2.81640625 9.81054688,2.4765625 Z M5,5 C5.453125,5.0078125 6.10546875,4.4296875 6.43359375,4.19140625 C9.02539062,2.31054687 9.22265625,2.14648438 9.8203125,1.67773438 C9.93359375,1.58984375 10,1.453125 10,1.30859375 L10,0.9375 C10,0.419921875 9.58007812,0 9.0625,0 L0.9375,0 C0.419921875,0 0,0.419921875 0,0.9375 L0,1.30859375 C0,1.453125 0.06640625,1.58789062 0.1796875,1.67773437 C0.77734375,2.14453125 0.974609375,2.31054687 3.56640625,4.19140625 C3.89453125,4.4296875 4.546875,5.0078125 5,5 Z" id="path-1"></path>
    </defs>
    <g id="SITE-2.0" stroke="none" stroke-width="1" fill="none" fill-rule="evenodd">
        <g id="Pos-(Blue)" transform="translate(-1078.000000, -373.250000)">
            <g id="Group-4" transform="translate(0.000000, 81.000000)">
                <g id="Stacked-Group-3" transform="translate(313.000000, 80.000000)">
                    <g id="Stacked-Group-3" transform="translate(0.000000, 204.000000)">
                        <g id="Stacked-Group" transform="translate(638.000000, 0.000000)">
                            <g id="Padding-Group-4" transform="translate(120.000000, 0.000000)">
                                <g id="Brands/instagram" transform="translate(7.000000, 8.250000)">
                                    <mask id="mask-2" fill="white">
                                        <use xlink:href="#path-1"></use>
                                    </mask>
                                    <g id="Mask"></g>
                                    <g id="🎨-color" mask="url(#mask-2)" fill="#FFFFFF">
                                        <g transform="translate(0.000000, -1.250000)" id="White">
                                            <rect x="0" y="0" width="10" height="10"></rect>
                                        </g>
                                    </g>
                                </g>
                            </g>
                        </g>
                    </g>
                </g>
            </g>
        </g>
    </g>
</svg>