<svg width="30" height="28" viewBox="0 0 30 28" fill="none" xmlns="http://www.w3.org/2000/svg">
<path d="M14.1993 4.89278L15 5.96304L15.8007 4.89278C17.1358 3.10819 19.2748 1.94873 21.66 1.94873C25.708 1.94873 29 5.24634 29 9.33373C29 11.01 28.7327 12.5563 28.2686 13.991L28.2685 13.991L28.2665 13.9975C27.1531 17.5209 24.8683 20.3693 22.3901 22.4991C19.9075 24.6328 17.2883 25.9953 15.6079 26.5671L15.6079 26.567L15.5972 26.5708C15.4825 26.6113 15.266 26.6488 15 26.6488C14.734 26.6488 14.5175 26.6113 14.4028 26.5708L14.4028 26.5707L14.3921 26.5671C12.7117 25.9953 10.0925 24.6328 7.60992 22.4991C5.13173 20.3693 2.84692 17.5209 1.73352 13.9975L1.73355 13.9975L1.73144 13.991C1.26728 12.5563 1 11.01 1 9.33373C1 5.24634 4.29195 1.94873 8.34 1.94873C10.7252 1.94873 12.8642 3.10819 14.1993 4.89278Z" fill="#000"/>
</svg>
