<?xml version="1.0" encoding="UTF-8"?>
<svg width="15.9377778px" height="15.9342222px" viewBox="0 0 15.9377778 15.9342222" version="1.1" xmlns="http://www.w3.org/2000/svg" xmlns:xlink="http://www.w3.org/1999/xlink">
    <title>285A3A31-1385-4001-934F-3BE2417FED39</title>
    <defs>
        <path d="M7.97066667,3.88177778 C5.70933333,3.88177778 3.88533333,5.70577778 3.88533333,7.96711111 C3.88533333,10.2284444 5.70933333,12.0524444 7.97066667,12.0524444 C10.232,12.0524444 12.056,10.2284444 12.056,7.96711111 C12.056,5.70577778 10.232,3.88177778 7.97066667,3.88177778 Z M7.97066667,10.6231111 C6.50933333,10.6231111 5.31466667,9.432 5.31466667,7.96711111 C5.31466667,6.50222222 6.50577778,5.31111111 7.97066667,5.31111111 C9.43555556,5.31111111 10.6266667,6.50222222 10.6266667,7.96711111 C10.6266667,9.432 9.432,10.6231111 7.97066667,10.6231111 L7.97066667,10.6231111 Z M13.176,3.71466667 C13.176,4.24444444 12.7493333,4.66755556 12.2231111,4.66755556 C11.6933333,4.66755556 11.2702222,4.24088889 11.2702222,3.71466667 C11.2702222,3.18844444 11.6968889,2.76177778 12.2231111,2.76177778 C12.7493333,2.76177778 13.176,3.18844444 13.176,3.71466667 Z M15.8817778,4.68177778 C15.8213333,3.40533333 15.5297778,2.27466667 14.5946667,1.34311111 C13.6631111,0.411555556 12.5324444,0.12 11.256,0.056 C9.94044444,-0.0186666667 5.99733333,-0.0186666667 4.68177778,0.056 C3.40888889,0.116444444 2.27822222,0.408 1.34311111,1.33955556 C0.408,2.27111111 0.12,3.40177778 0.056,4.67822222 C-0.0186666667,5.99377778 -0.0186666667,9.93688889 0.056,11.2524444 C0.116444444,12.5288889 0.408,13.6595556 1.34311111,14.5911111 C2.27822222,15.5226667 3.40533333,15.8142222 4.68177778,15.8782222 C5.99733333,15.9528889 9.94044444,15.9528889 11.256,15.8782222 C12.5324444,15.8177778 13.6631111,15.5262222 14.5946667,14.5911111 C15.5262222,13.6595556 15.8177778,12.5288889 15.8817778,11.2524444 C15.9564444,9.93688889 15.9564444,5.99733333 15.8817778,4.68177778 Z M14.1822222,12.664 C13.9048889,13.3608889 13.368,13.8977778 12.6675556,14.1786667 C11.6186667,14.5946667 9.12977778,14.4986667 7.97066667,14.4986667 C6.81155556,14.4986667 4.31911111,14.5911111 3.27377778,14.1786667 C2.57688889,13.9013333 2.04,13.3644444 1.75911111,12.664 C1.34311111,11.6151111 1.43911111,9.12622222 1.43911111,7.96711111 C1.43911111,6.808 1.34666667,4.31555556 1.75911111,3.27022222 C2.03644444,2.57333333 2.57333333,2.03644444 3.27377778,1.75555556 C4.32266667,1.33955556 6.81155556,1.43555556 7.97066667,1.43555556 C9.12977778,1.43555556 11.6222222,1.34311111 12.6675556,1.75555556 C13.3644444,2.03288889 13.9013333,2.56977778 14.1822222,3.27022222 C14.5982222,4.31911111 14.5022222,6.808 14.5022222,7.96711111 C14.5022222,9.12622222 14.5982222,11.6186667 14.1822222,12.664 Z" id="path-1"></path>
    </defs>
    <g id="SITE-2.0" stroke="none" stroke-width="1" fill="none" fill-rule="evenodd">
        <g id="Home" transform="translate(-1174.997756, -3354.047111)">
            <g id="Stacked-Group" transform="translate(-0.035133, 0.000000)">
                <g id="Composite-Footer" transform="translate(0.000000, 2502.000000)">
                    <g id="Footer" transform="translate(0.000000, 339.000000)">
                        <g id="Rectangle-2" transform="translate(0.000000, 112.000000)">
                            <g id="Stacked-Group" transform="translate(100.000000, 40.000000)">
                                <g id="Stacked-Group-4" transform="translate(8.000000, 213.000000)">
                                    <g id="Stacked-Group-5" transform="translate(943.000000, 0.000000)">
                                        <g id="Stacked-Group" transform="translate(0.000000, 100.000000)">
                                            <g transform="translate(0.000000, 36.000000)" id="Padding-Group-4">
                                                <g transform="translate(112.000000, 0.000000)">
                                                    <g id="Brands/instagram" transform="translate(12.032889, 12.047111)">
                                                        <mask id="mask-2" fill="white">
                                                            <use xlink:href="#path-1"></use>
                                                        </mask>
                                                        <g id="Mask"></g>
                                                        <g id="🎨-color" mask="url(#mask-2)" fill="#FFFFFF">
                                                            <g transform="translate(-0.032889, -0.047111)" id="White">
                                                                <rect x="0" y="0" width="16" height="16"></rect>
                                                            </g>
                                                        </g>
                                                    </g>
                                                </g>
                                            </g>
                                        </g>
                                    </g>
                                </g>
                            </g>
                        </g>
                    </g>
                </g>
            </g>
        </g>
    </g>
</svg>