<?xml version="1.0" encoding="UTF-8"?>
<svg width="9.98050439px" height="9.98052632px" viewBox="0 0 9.98050439 9.98052632" version="1.1" xmlns="http://www.w3.org/2000/svg" xmlns:xlink="http://www.w3.org/1999/xlink">
    <title>D7E34FFF-4077-46D7-8C56-D1E89D5720F6</title>
    <defs>
        <path d="M6.3667154,3.6138694 C7.53137427,4.77973684 7.51538986,6.64891813 6.37373294,7.79691033 C6.37158869,7.79924951 6.36905458,7.80178363 6.3667154,7.80412281 L5.05677388,9.11406433 C3.90141326,10.269425 2.02170565,10.269269 0.866520468,9.11406433 C-0.288840156,7.95889864 -0.288840156,6.07897661 0.866520468,4.92381092 L1.58983431,4.20049708 C1.78164717,4.00868421 2.11197856,4.13616959 2.12188109,4.40724172 C2.13451267,4.75269981 2.19646199,5.09977583 2.31076998,5.43494152 C2.34948343,5.5484308 2.32182261,5.67396686 2.23702729,5.75876218 L1.98192008,6.0138694 C1.43560429,6.56018519 1.41846979,7.44973684 1.95940546,8.00139376 C2.50568226,8.55848928 3.403577,8.56180312 3.95404483,8.01133528 L5.26398635,6.70158869 C5.81351852,6.15205653 5.81121832,5.26383041 5.26398635,4.71659844 C5.19184211,4.64459064 5.11917154,4.58864523 5.06240741,4.5495614 C4.98098049,4.49364555 4.93077073,4.40253512 4.9269883,4.30383041 C4.91926901,4.097846 4.99225146,3.8855848 5.15501949,3.72281677 L5.56542885,3.31238792 C5.67305068,3.20476608 5.84188109,3.19154971 5.96667641,3.27864523 C6.10959427,3.37844045 6.24345652,3.49061418 6.3667154,3.6138694 Z M9.11398635,0.866461989 C7.95880117,-0.288742689 6.07909357,-0.288898634 4.92373294,0.866461989 L3.61379142,2.17640351 C3.61145224,2.17874269 3.60891813,2.1812768 3.60677388,2.18361599 C2.46513645,3.33160819 2.44913255,5.20078947 3.61379142,6.36665692 C3.73704303,6.48990657 3.87089889,6.60207388 4.01381092,6.7018616 C4.13860624,6.78895712 4.30745614,6.77572125 4.41505848,6.66811891 L4.82546784,6.25769006 C4.98823587,6.09492203 5.06121832,5.88266082 5.05349903,5.67667641 C5.0497166,5.57797171 4.99950684,5.48686127 4.91807992,5.43094542 C4.86131579,5.3918616 4.78864522,5.33591618 4.71650097,5.26390838 C4.16926901,4.71667641 4.16696881,3.82845029 4.71650097,3.27891813 L6.0264425,1.96917154 C6.57691033,1.4187037 7.47478558,1.42201754 8.02108187,1.97911306 C8.56201754,2.53076998 8.54490253,3.42032164 7.99856725,3.96663743 L7.74346004,4.22174464 C7.65866472,4.30653996 7.6310039,4.43207602 7.66971735,4.5455653 C7.78402534,4.880731 7.84597466,5.22780702 7.85860624,5.57326511 C7.86852827,5.84433723 8.19884016,5.97182261 8.39065302,5.78000975 L9.11396686,5.05669591 C10.269347,3.90154971 10.269347,2.02162768 9.11398635,0.866461989 L9.11398635,0.866461989 Z" id="path-1"></path>
    </defs>
    <g id="SITE-2.0" stroke="none" stroke-width="1" fill="none" fill-rule="evenodd">
        <g id="Pos-(Blue)" transform="translate(-1110.009737, -372.019483)">
            <g id="Group-4" transform="translate(0.000000, 81.000000)">
                <g id="Stacked-Group-3" transform="translate(313.000000, 80.000000)">
                    <g id="Stacked-Group-3" transform="translate(0.000000, 204.000000)">
                        <g id="Stacked-Group" transform="translate(638.000000, 0.000000)">
                            <g id="Padding-Group-4" transform="translate(152.000000, 0.000000)">
                                <g id="Brands/instagram" transform="translate(7.009737, 7.019483)">
                                    <mask id="mask-2" fill="white">
                                        <use xlink:href="#path-1"></use>
                                    </mask>
                                    <g id="Mask"></g>
                                    <g id="🎨-color" mask="url(#mask-2)" fill="#FFFFFF">
                                        <g transform="translate(-0.009737, -0.019483)" id="White">
                                            <rect x="0" y="0" width="10" height="10"></rect>
                                        </g>
                                    </g>
                                </g>
                            </g>
                        </g>
                    </g>
                </g>
            </g>
        </g>
    </g>
</svg>