<?xml version="1.0" encoding="UTF-8"?>
<svg width="392.053517px" height="784px" viewBox="0 0 392.053517 784" version="1.1" xmlns="http://www.w3.org/2000/svg" xmlns:xlink="http://www.w3.org/1999/xlink">
    <title>2E8DC900-6A85-4DB9-A946-13E552192CC4</title>
    <g id="SITE-2.0" stroke="none" stroke-width="1" fill="none" fill-rule="evenodd">
        <g id="Nav-Mobile" transform="translate(-53.246917, 54.000000)" fill="#FFFFFF" fill-rule="nonzero">
            <g id="Group-4" transform="translate(0.000000, 57.000000)">
                <path d="M241.800591,648.993682 C181.015123,613.826997 156.856123,513.109662 146.137357,470.932257 C135.418591,428.754852 103.385816,331.202803 103.385816,331.202803 C63.2042711,257.995137 53.2469174,163.169193 53.2469174,163.169193 C53.2469174,-111.082231 272.837815,-111 272.837815,-111 C272.837815,-111 273.663754,-23.134739 358.790739,0.00807092195 C358.790739,0.00807092195 366.28687,101.435643 445.300434,120.059015 L393.485692,148.878704 L325.815878,111.950907 C325.815878,111.950907 341.641451,106.201814 350.158943,93.277386 C350.158943,93.277386 281.358994,131.571244 249.274598,83.7390259 C249.274598,83.7390259 233.157733,27.6522646 207.743528,7.79923618 C207.743528,7.79923618 92.7094531,23.0746542 137.192147,173.558082 C137.192147,173.558082 122.920739,74.0903377 180.319785,32.4364895 C180.319785,32.4364895 146.111547,97.1890164 198.433283,138.291224 C250.755019,179.393433 276.980414,168.898227 276.901138,218.461593 C276.821863,268.024958 229.249274,320.494966 216.867569,352.40384 C204.485864,384.310707 201.2282,426.855204 218.171003,452.381099 C218.171003,452.381099 172.454932,405.459589 172.829186,358.367571 C172.829186,358.367571 218.637504,591.010523 254.095434,618.136181 C289.553364,645.261838 328.884907,645.261838 363.1896,633.669748 C397.494292,622.077658 392.668971,573.878344 386.371189,554.227918 C380.073407,534.577492 352.133453,526.056155 341.718883,533.341818 C331.304313,540.62748 318.083765,548.984327 328.891024,572.855302 C328.891024,572.855302 347.373244,589.516841 355.907329,564.983898 C355.907329,564.983898 354.528306,544.63339 335.577808,554.789588 C335.577808,554.789588 352.636759,536.34274 363.1896,558.641039 C373.74244,580.939338 336.477491,598.541675 323.574044,583.565145 C310.670597,568.588616 306.974153,560.644997 315.707348,540.021679 C324.440542,519.39836 353.429513,514.170817 377.448103,524.174561 C401.466692,534.178305 415.336193,562.1595 413.424366,582.582223 C402.961863,694.352546 302.586058,684.160368 241.800591,648.993682 Z" id="logoMark" transform="translate(249.273676, 281.000000) scale(-1, 1) translate(-249.273676, -281.000000) "></path>
            </g>
        </g>
    </g>
</svg>