<?xml version="1.0" encoding="UTF-8"?>
<svg width="562.13482px" height="1126px" viewBox="0 0 562.13482 1126" version="1.1" xmlns="http://www.w3.org/2000/svg" xmlns:xlink="http://www.w3.org/1999/xlink">
    <title>3DFE9A8D-C06C-425A-8171-FA6820BF90BC</title>
    <g id="SITE-2.0" stroke="none" stroke-width="1" fill="none" fill-rule="evenodd">
        <g id="404" transform="translate(-796.331934, 29.750000)" fill="#FFFFFF" fill-rule="nonzero">
            <path d="M1066.68427,1061.77154 C979.528754,1011.26428 944.889056,866.611581 929.520257,806.035359 C914.151459,745.459137 868.222172,605.352495 868.222172,605.352495 C810.609003,500.209852 796.331934,364.01851 796.331934,364.01851 C796.331934,-29.8681019 1111.18612,-29.75 1111.18612,-29.75 C1111.18612,-29.75 1112.37037,96.4442397 1234.42728,129.68251 C1234.42728,129.68251 1245.17539,275.355273 1358.46675,302.102616 L1284.17365,343.494159 L1187.14721,290.457553 C1187.14721,290.457553 1209.83826,282.200564 1222.05082,263.638185 C1222.05082,263.638185 1123.40397,318.636761 1077.40067,249.938958 C1077.40067,249.938958 1054.29196,169.385778 1017.85252,140.872372 C1017.85252,140.872372 852.914172,162.811302 916.694421,378.939287 C916.694421,378.939287 896.231768,236.081276 978.531763,176.256999 C978.531763,176.256999 929.48325,269.256164 1004.50329,328.288162 C1079.52333,387.320159 1117.12586,372.246689 1117.0122,443.430808 C1116.89853,514.614927 1048.68792,589.973637 1030.93477,635.801943 C1013.18161,681.627368 1008.5107,742.730816 1032.80366,779.391732 C1032.80366,779.391732 967.254966,712.001909 967.791579,644.367201 C967.791579,644.367201 1033.47254,978.494706 1084.31289,1017.45324 C1135.15323,1056.41177 1191.54765,1056.41177 1240.73446,1039.76293 C1289.92127,1023.11409 1283.00262,953.88905 1273.97273,925.666627 C1264.94283,897.444203 1224.88192,885.205652 1209.94928,895.669498 C1195.01665,906.133345 1176.06074,918.135653 1191.55642,952.419732 C1191.55642,952.419732 1218.05663,976.349443 1230.29298,941.114629 C1230.29298,941.114629 1228.31571,911.886732 1201.14408,926.473311 C1201.14408,926.473311 1225.60357,899.979497 1240.73446,932.00486 C1255.86535,964.030223 1202.43406,989.311129 1183.93282,967.801471 C1165.43158,946.291813 1160.13154,934.882994 1172.65338,905.263278 C1185.17522,875.643563 1226.74024,868.135638 1261.17861,882.50326 C1295.61699,896.870881 1315.50338,937.05816 1312.76216,966.389774 C1297.76079,1126.91705 1153.83979,1112.27879 1066.68427,1061.77154 Z" id="logoMark" transform="translate(1077.399344, 533.250000) scale(-1, 1) translate(-1077.399344, -533.250000) "></path>
        </g>
    </g>
</svg>