<?xml version="1.0" encoding="UTF-8"?>
<svg width="41.56721px" height="524.057544px" viewBox="0 0 41.56721 524.057544" version="1.1" xmlns="http://www.w3.org/2000/svg" xmlns:xlink="http://www.w3.org/1999/xlink">
    <title>Modal Wave</title>
    <g id="ASSETS" stroke="none" stroke-width="1" fill="none" fill-rule="evenodd">
        <g id="Artboard" transform="translate(-1904.000000, -50.000000)" fill="#FFFFFF">
            <g id="Modal-Wave" transform="translate(1924.783605, 312.028772) rotate(-90.000000) translate(-1924.783605, -312.028772) translate(1662.754833, 291.245167)">
                <g id="Group-2" transform="translate(0.000000, 0.000000)">
                    <path d="M524.057544,0 L524.057544,13.4805006 C481.739015,32.2049735 431.116049,41.56721 372.188643,41.56721 C283.797536,41.56721 205.126569,14.4226066 165.031076,13.4805006 C138.993936,12.8687175 108.917336,12.7506888 74.8012753,13.1264143 C32.1012983,7.91618528 7.16753987,9.0477067 0,16.5209786 L0,0 L524.057544,0 Z" id="Rectangle" opacity="0.3" transform="translate(262.028772, 20.783605) scale(-1, -1) translate(-262.028772, -20.783605) "></path>
                    <path d="M524.057544,7.72487973 L524.057544,32.1694325 C480.650187,20.4005176 429.482806,14.5160601 370.5554,14.5160601 C282.164293,14.5160601 244.398932,41.56721 202.778468,41.56721 C175.031492,41.56721 107.438669,35.1937972 0,22.4469716 L0,7.72487973 L524.057544,7.72487973 Z" id="Rectangle" opacity="0.5" transform="translate(262.028772, 24.646045) scale(1, -1) translate(-262.028772, -24.646045) "></path>
                    <path d="M524.057544,10.6789056 L524.057544,34.6924312 C480.523573,20.0925435 429.292886,12.7925996 370.365481,12.7925996 C281.974373,12.7925996 174.630817,45.3050461 97.5436559,41.2105731 C46.1522149,38.4809245 13.6376629,34.4100239 0,28.9978713 L0,10.6789056 L524.057544,10.6789056 Z" id="Rectangle" transform="translate(262.028772, 26.123058) scale(1, -1) translate(-262.028772, -26.123058) "></path>
                </g>
            </g>
        </g>
    </g>
</svg>