<?xml version="1.0" encoding="UTF-8"?>
<svg width="15.9999375px" height="12.9949062px" viewBox="0 0 15.9999375 12.9949062" version="1.1" xmlns="http://www.w3.org/2000/svg" xmlns:xlink="http://www.w3.org/1999/xlink">
    <title>Brands/twitter</title>
    <defs>
        <path d="M14.3553125,3.2385625 C14.3654687,3.3806875 14.3654687,3.52284375 14.3654687,3.66496875 C14.3654687,7.99996875 11.066,12.9949062 5.03553125,12.9949062 C3.17765625,12.9949062 1.45178125,12.4568125 0,11.5228437 C0.26396875,11.5532812 0.51775,11.5634375 0.791875,11.5634375 C2.32484375,11.5634375 3.73603125,11.0456875 4.8629375,10.1624375 C3.4213125,10.1319687 2.2131875,9.1878125 1.7969375,7.8883125 C2,7.91875 2.20303125,7.9390625 2.41625,7.9390625 C2.71065625,7.9390625 3.00509375,7.8984375 3.2791875,7.82740625 C1.77665625,7.5228125 0.64971875,6.20303125 0.64971875,4.609125 L0.64971875,4.56853125 C1.08625,4.8121875 1.59390625,4.96446875 2.1319375,4.98475 C1.2486875,4.39590625 0.67003125,3.39084375 0.67003125,2.25378125 C0.67003125,1.64465625 0.8324375,1.08628125 1.11671875,0.59896875 C2.7309375,2.5888125 5.15734375,3.88828125 7.878125,4.0304375 C7.827375,3.78678125 7.79690625,3.533 7.79690625,3.2791875 C7.79690625,1.4720625 9.25884375,0 11.0760937,0 C12.02025,0 12.8730312,0.3959375 13.4720312,1.03553125 C14.213125,0.89340625 14.9237812,0.61928125 15.55325,0.24365625 C15.3095625,1.00509375 14.7918125,1.6446875 14.111625,2.05075 C14.7715312,1.97971875 15.411125,1.7969375 15.9999375,1.54315625 C15.5533125,2.192875 14.9949062,2.77153125 14.3553125,3.2385625 Z" id="path-1"></path>
    </defs>
    <g id="SITE-2.0" stroke="none" stroke-width="1" fill="none" fill-rule="evenodd">
        <g id="Brands/twitter">
            <mask id="mask-2" fill="white">
                <use xlink:href="#path-1"></use>
            </mask>
            <g id="Mask"></g>
            <g id="🎨-color" mask="url(#mask-2)" fill="#FFFFFF">
                <g transform="translate(0.000000, -1.502562)" id="White">
                    <rect x="0" y="0" width="16" height="16"></rect>
                </g>
            </g>
        </g>
    </g>
</svg>