<?xml version="1.0" encoding="UTF-8"?>
<svg width="1440px" height="126px" viewBox="0 0 1440 126" version="1.1" xmlns="http://www.w3.org/2000/svg" xmlns:xlink="http://www.w3.org/1999/xlink">
    <title>Desktop_FooterWaves_10%</title>
    <g id="ASSETS" stroke="none" stroke-width="1" fill="none" fill-rule="evenodd" opacity="0.1">
        <path d="M0,0 C38.9695697,0.191150908 65.5539297,1.40318955 79.75308,3.63611591 C101.051806,6.98550546 135.833381,14.8823529 204.320799,14.8823529 C272.808218,14.8823529 262.005282,-0.0643441659 341.295637,1.40735294 C420.585992,2.87905005 409.783056,14.8823529 478.270474,14.8823529 C546.757893,14.8823529 555.858689,1.40735294 615.245312,1.40735294 C674.631935,1.40735294 683.732731,14.8823529 752.22015,14.8823529 C820.707568,14.8823529 832.649083,1.40735294 889.194987,1.40735294 C945.740891,1.40735294 957.682406,14.8823529 1026.16982,14.8823529 C1094.65724,14.8823529 1090.3845,1.40735294 1158.87192,1.40735294 C1227.35934,1.40735294 1231.63208,14.8823529 1300.1195,14.8823529 C1368.60692,14.8823529 1371.37488,6.56296945 1397.39492,3.63611591 C1414.74162,1.68488022 1428.94331,0.472841585 1440,0 L1440,126 L0,126 L0,0 Z" id="Desktop_FooterWaves_10%" fill="#212843"></path>
    </g>
</svg>